<?xml version="1.0" encoding="utf-8"?>
<!DOCTYPE svg PUBLIC "-//W3C//DTD SVG 1.0//EN" "http://www.w3.org/TR/2001/REC-SVG-20010904/DTD/svg10.dtd">
<svg version="1.0" xmlns="http://www.w3.org/2000/svg" width="500px" height="500px" viewBox="0 0 500 500" preserveAspectRatio="xMidYMid meet">
 <g fill="#0d0f3d">
  <path d="M160 308.3 c-2.9 -1.1 -8.9 -7.7 -9.5 -10.5 -1.9 -8.7 7.6 -14.7 26.8 -16.8 13.1 -1.5 28.2 0.1 37.4 4.1 l4.4 1.9 -2.1 -2.7 c-5.6 -7.2 -14 -10.4 -27.2 -10.4 -10.6 0 -16.6 0.9 -33.2 4.8 -8.7 2 -11 2.3 -11.6 1.2 -4.6 -7.4 28.1 -16.7 55.3 -15.7 l11.8 0.4 0.5 -2.5 c0.3 -1.4 0.8 -3.3 1 -4.1 0.2 -0.8 1 -9.5 1.9 -19.2 2.3 -26.2 5.8 -35.4 15.3 -40.2 6.5 -3.3 16.3 -5.2 19.1 -3.7 5 2.7 2.9 11.1 -2.9 11.1 -1.6 0 -3.2 -0.5 -3.5 -1 -1.1 -1.7 -6.1 -1.1 -9.5 1.2 -7 4.7 -9.9 15.4 -10 36.3 0 6.1 -0.5 14.1 -1 18 -0.7 5.9 -0.6 7.1 0.7 7.9 4.7 2.6 7 18.6 3.8 26.3 -0.8 1.9 -1.5 4.9 -1.5 6.5 0 3.9 -4 7.8 -8 7.8 -7.2 0 -14 -6.5 -14 -13.5 0 -2.4 -0.4 -4.6 -0.8 -4.9 -2.1 -1.3 -22.8 -2.8 -29.7 -2.1 l-7.7 0.7 2.5 2.6 c5.1 5.4 5.6 10.4 1.4 15 -2 2.1 -6.1 2.8 -9.7 1.5z m6 -6.8 c1.8 -2.2 -1.2 -6.5 -4.5 -6.5 -3 0 -3.4 3.3 -0.8 6.2 2 2.2 3.6 2.3 5.3 0.3z m53.7 -0.1 c0.3 -0.8 0 -2.7 -0.6 -4 -0.9 -2 -1.7 -2.5 -3.8 -2.2 -3.5 0.4 -4.1 3 -1.4 5.7 2.5 2.5 4.9 2.7 5.8 0.5z"/>
  <path d="M318 273.5 c-1.9 -2.3 0.7 -18.9 4.6 -28.8 0.6 -1.6 0.3 -1.8 -3 -1.2 -2.9 0.6 -3.6 0.4 -3.6 -0.8 0 -1 1.4 -1.8 4 -2.2 3.6 -0.6 4.3 -1.2 6.5 -5.6 3.1 -6.1 5 -6.5 4.1 -0.8 -0.6 3.9 -0.5 4.1 1.6 3.6 1.3 -0.3 4.7 -0.9 7.6 -1.3 4.2 -0.5 5.2 -0.4 5.2 0.8 0 1.1 -2.3 1.9 -8.2 2.9 l-8.3 1.4 -3.2 9.5 c-1.7 5.2 -3.4 12 -3.8 15 -0.6 5.2 -0.5 5.4 1 3.5 0.9 -1.1 3.9 -6.2 6.7 -11.2 2.8 -5.1 5.7 -9.3 6.5 -9.3 0.7 0 1.3 0.3 1.3 0.7 0 0.4 -2.5 5.2 -5.6 10.7 -8 14.2 -10.5 16.6 -13.4 13.1z"/>
  <path d="M395.3 273.4 c-0.9 -2.5 0.6 -13.8 3.1 -22.4 l2.3 -8 -3.3 0.6 c-4.9 0.9 -4.6 -2 0.4 -3.2 3 -0.7 4.1 -1.8 6.2 -5.6 3.2 -6.1 5.5 -6.5 4.6 -0.7 -0.6 3.9 -0.5 4.1 1.6 3.6 1.3 -0.3 4.7 -0.9 7.6 -1.3 4.3 -0.5 5.2 -0.4 5.2 0.8 0 1.2 -2 1.9 -7.7 2.7 -4.3 0.6 -8.3 1.7 -9 2.4 -1.7 1.8 -6 16.5 -6.8 23.2 -0.8 7 -0.8 7 7.1 -6.7 3.1 -5.4 6.2 -9.8 7 -9.8 0.8 0 1.4 0.2 1.4 0.4 0 0.9 -10.5 19.4 -12.7 22.4 -2.6 3.4 -6 4.2 -7 1.6z"/>
  <path d="M249.5 271.4 c-1.9 -1.9 -1.3 -4.6 2.2 -9.2 2.4 -3.2 2.4 -3.4 0.9 -7.9 -3 -8.7 -1.5 -13.8 3.9 -13.1 2.6 0.2 3 0.8 3.3 3.5 0.3 3.5 -1.4 7.7 -2.8 6.8 -0.5 -0.3 -0.6 -2.2 -0.3 -4.2 0.4 -2.6 0.3 -3.4 -0.5 -2.9 -1.5 0.9 -1.5 4.4 -0.1 8.5 l1.1 3.2 3 -2.8 c1.7 -1.5 3.7 -4.3 4.4 -6 1.9 -4.5 4.8 -4.5 3.9 0 l-0.7 3.2 2.2 -2 c2.1 -1.9 2.3 -1.9 3.5 -0.2 1.1 1.5 1.5 1.4 3.9 -2.2 2.8 -4 5.1 -5.6 6.7 -4.5 1.4 0.8 1.1 3.7 -1.2 12 -1.1 4.1 -1.9 7.8 -1.6 8 0.3 0.3 2.2 -2.9 4.2 -7.1 4 -7.9 6.8 -10 10.6 -7.7 1.5 1 2.2 0.7 3.9 -1.5 1.5 -1.9 2.4 -2.3 3.2 -1.5 0.8 0.8 0.5 2.5 -1.1 6.4 -2.3 5.7 -3.7 11.8 -2.8 11.8 1.2 0 8.4 -11.6 9.3 -14.9 0.5 -1.9 1.5 -3.6 2.3 -3.9 1.1 -0.4 1.3 0.8 0.9 5.7 l-0.4 6.1 2.4 -4.4 c2.5 -4.5 4.5 -6.1 6.4 -5 0.5 0.4 0.1 1.5 -1 2.8 -1.1 1.1 -3.4 4.9 -5.1 8.4 -2.3 4.5 -3.7 6.2 -5.1 6.2 -1.5 0 -2 -0.7 -2 -2.7 l0 -2.8 -3.1 3.8 c-2 2.4 -3.9 3.7 -5.4 3.7 -2.6 0 -5 -3.2 -4.1 -5.6 0.4 -1.1 0 -1.1 -1.9 0.2 -1.4 0.9 -3.4 1.4 -4.5 1.1 -1.6 -0.4 -2.5 0.3 -4 3.4 -2.2 4.1 -4.8 5.1 -7 2.4 -1 -1.2 -1 -2.8 -0.1 -7.6 0.7 -3.4 1.5 -6.8 1.8 -7.8 0.3 -0.9 -0.6 0 -1.8 1.9 -1.3 1.9 -2.7 3.8 -3.3 4.2 -1.4 1 -3.6 -0.2 -3.6 -2.1 -0.1 -1 -0.6 -0.6 -1.6 1.2 -1.7 3.2 -4.2 3.5 -5.2 0.6 l-0.8 -2 -1.9 2.1 c-1.3 1.4 -1.8 3.3 -1.6 5.5 0.4 5.3 -3 10.5 -6.9 10.5 -0.5 0 -1.6 -0.7 -2.5 -1.6z m5 -5.9 c0.7 -2.9 0.7 -2.9 -0.8 -1 -0.9 1.1 -1.7 2.9 -1.7 4 0 2.7 1.7 0.7 2.5 -3z m40.5 -13.5 c0.5 -0.9 0.5 -2.2 0 -3 -0.6 -0.9 -1.4 -0.2 -2.9 2.8 -1.2 2.3 -2.1 4.4 -2.1 4.8 0 1 4 -2.7 5 -4.6z"/>
  <path d="M142.3 256.6 c-19.2 -19.9 -22.4 -34.1 -9.1 -40.4 7.2 -3.5 20 -4.6 36.2 -3.2 13.8 1.1 43.6 5.6 44.6 6.7 0.3 0.3 -5.9 0.3 -13.7 -0.1 -7.9 -0.4 -14.3 -0.3 -14.3 0.1 0 0.4 0.7 2.6 1.4 4.8 l1.4 4 9.2 1.2 c5 0.6 9.4 1.4 9.7 1.7 0.4 0.3 -3.2 0.6 -8 0.6 -4.7 0 -8.8 0.3 -9 0.8 -0.3 0.4 -0.2 2.1 0 3.9 0.5 2.8 1 3.3 5.3 4.3 2.7 0.6 5.7 1.8 6.7 2.5 1.6 1.3 1.1 1.4 -4.4 1.5 l-6.3 0 -0.1 4.3 -0.1 4.2 -1 -4.4 c-0.9 -4.1 -1.1 -4.3 -4 -3.7 -1.7 0.3 -4.1 0.6 -5.3 0.6 -2.2 0 -2.3 0.3 -1.9 6.8 l0.5 6.7 -2.4 -6 c-1.3 -3.3 -2.8 -6 -3.3 -6 -2.6 0.1 -8.4 1.7 -8.4 2.4 0 0.4 0.9 3.4 2 6.6 3.1 9 2.4 9.6 -2.1 2 -2.2 -3.8 -4.2 -7.1 -4.4 -7.3 -0.5 -0.5 -11.2 4.6 -11.9 5.7 -0.4 0.6 0.4 3.2 1.9 5.6 1.4 2.5 2.2 4.5 1.7 4.5 -0.5 0 -5.4 -4.7 -10.9 -10.4z m8.2 -9.1 c3.3 -1.3 6 -2.8 6 -3.2 0 -0.4 -0.7 -1.8 -1.6 -3 -1.6 -2.3 -1.7 -2.3 -7 -0.7 -3 0.9 -5.8 2 -6.3 2.4 -0.4 0.5 0 2.2 1 3.9 1 1.7 1.8 3.1 1.9 3.1 0 0 2.7 -1.1 6 -2.5z m18.8 -6.2 c3.2 -0.6 3.2 -0.7 1.2 -3.7 -1.4 -2.1 -1.9 -2.2 -6 -1.3 l-4.4 1 1.5 2.9 c1.1 2.1 2 2.8 3.2 2.3 0.9 -0.3 2.9 -0.9 4.5 -1.2z m18.7 -1.8 c0 -0.4 -0.7 -2 -1.6 -3.7 -1.4 -2.6 -1.9 -2.9 -4.6 -2.4 -1.7 0.3 -3.9 0.6 -4.8 0.6 -1.6 0 -1.7 0.4 -0.7 3 1.1 2.8 1.5 3 6.4 3 2.9 0 5.3 -0.2 5.3 -0.5z m-44.6 -4.7 c2.2 -0.6 4.3 -1.3 4.5 -1.5 0.9 -0.6 -8.2 -9.2 -9.1 -8.7 -1.7 1.1 -2.8 5.4 -2.2 8.4 0.7 3.4 1 3.5 6.8 1.8z m22.1 -4.9 c0.2 -0.3 -1.4 -2.8 -3.7 -5.7 -2.6 -3.5 -4.5 -5.1 -5.5 -4.8 -0.8 0.3 -2.8 0.6 -4.3 0.6 l-2.9 0 4 5.8 c4.1 5.9 4.1 5.9 8 5.2 2.2 -0.4 4.2 -0.9 4.4 -1.1z m17.5 -1.3 c0 -0.2 -1.2 -2.4 -2.6 -5 l-2.6 -4.6 -5.5 0 c-3 0 -5.3 0.3 -5.1 0.8 0.2 0.4 1.4 2.6 2.8 4.9 2.4 4.2 2.6 4.3 7.8 4.3 2.8 0 5.2 -0.2 5.2 -0.4z"/>
  <path d="M351 262.5 c-1.9 -4.9 2.1 -17.5 6.8 -21.8 2.9 -2.7 6.2 -1.4 6.2 2.3 0 3.8 -0.9 6 -2.6 6 -1 0 -1.2 -0.9 -0.8 -3.2 0.6 -3.1 0.5 -3.2 -0.9 -1.3 -2.1 2.8 -4.7 11 -4.7 14.7 0 3.1 0 3.1 2.1 1.2 1.2 -1 4.1 -4.7 6.6 -8.1 3.7 -5.2 5 -6.3 7.3 -6.3 1.6 0 3.2 0.5 3.6 1.2 0.5 0.7 1.5 0.2 3 -1.8 3.3 -4.1 5.2 -2.1 2.9 3.2 -2.5 5.6 -4.5 13.4 -3.5 13.4 1.2 0 9 -12.2 9 -14.2 0 -2.8 1.1 -4.8 2.7 -4.8 1.3 0 1.5 1 1 5.8 l-0.7 5.7 2 -3.7 c2.3 -4.2 5.5 -6.5 6.6 -4.7 0.4 0.7 0 1.5 -0.7 2 -0.8 0.4 -3 3.9 -4.9 7.8 -3.5 7.4 -6.3 9.2 -7.8 5.1 -0.7 -2 -0.9 -1.9 -3 1 -3.8 5 -10.1 3.3 -8.9 -2.5 l0.4 -2.6 -2.1 2 c-2.5 2.4 -4.6 2.7 -6.4 0.9 -1 -1 -1.9 -0.6 -4.3 2 -3.7 4 -7.5 4.3 -8.9 0.7z m20.9 -9.3 c1.2 -1.8 1.7 -3.3 1.1 -4.2 -0.6 -1 -1.3 -0.5 -2.9 2.1 -3.7 6 -2.3 7.7 1.8 2.1z"/>
 </g>
</svg>